<svg xmlns="http://www.w3.org/2000/svg" xmlns:xlink="http://www.w3.org/1999/xlink" width="15" height="15" viewBox="0 0 15 15"><defs><path id="vng0a" d="M1245.63 398.27a.6.6 0 0 0-.19-.44l-1-1a.6.6 0 0 0-.44-.19.6.6 0 0 0-.44.19l-2.68 2.69-1.44-1.44a.6.6 0 0 0-.44-.19.6.6 0 0 0-.44.19l-1 1a.6.6 0 0 0-.18.44c0 .17.06.31.19.44l2.87 2.87a.6.6 0 0 0 .44.18.6.6 0 0 0 .44-.18l4.12-4.12a.6.6 0 0 0 .19-.44zm-1.46 5.85a5.2 5.2 0 0 1-2.67.71 5.3 5.3 0 0 1-4.6-7.98 5.3 5.3 0 0 1 7.27-1.94 5.3 5.3 0 0 1 0 9.2zm1.1-11.1c-1.15-.67-2.4-1-3.77-1a7.47 7.47 0 0 0-7.5 7.5 7.47 7.47 0 0 0 7.5 7.5 7.47 7.47 0 0 0 7.5-7.5 7.47 7.47 0 0 0-3.74-6.5z"/></defs><g><g transform="translate(-1234 -392)"><use fill="#2196f3" xlink:href="#vng0a"/></g></g></svg>