<svg xmlns="http://www.w3.org/2000/svg" xmlns:xlink="http://www.w3.org/1999/xlink" width="22" height="22" viewBox="0 0 22 22"><defs><path id="ebjsa" d="M1672.3 84.23a5.7 5.7 0 0 1-4.18-1.74 5.7 5.7 0 0 1-1.74-4.18 5.7 5.7 0 0 1 1.74-4.18 5.7 5.7 0 0 1 4.18-1.73 5.7 5.7 0 0 1 4.18 1.73 5.7 5.7 0 0 1 1.73 4.18 5.7 5.7 0 0 1-1.73 4.18 5.7 5.7 0 0 1-4.18 1.74zm7.66-.65a9.04 9.04 0 0 0 1.63-5.27 9.3 9.3 0 0 0-2.71-6.58 9.3 9.3 0 0 0-6.58-2.71 9.3 9.3 0 0 0-6.58 2.71 9.3 9.3 0 0 0-2.72 6.58 9.3 9.3 0 0 0 2.71 6.58 9.3 9.3 0 0 0 6.59 2.72c1.93 0 3.69-.55 5.27-1.64l4.52 4.52c.32.33.72.5 1.2.5.45 0 .85-.17 1.18-.5.34-.34.5-.73.5-1.19 0-.47-.16-.86-.48-1.19z"/></defs><g><g transform="translate(-1663 -69)"><use fill="#d6e9f9" xlink:href="#ebjsa"/></g></g></svg>